<?xml version="1.0" encoding="utf-8"?>
<svg viewBox="-43.253 16.205 732.359 67.266" xmlns="http://www.w3.org/2000/svg">
  <rect stroke="#dfdedc" id="svg_13" height="25.124994" width="55" y="35" x="7.515625" stroke-width="1.5" fill="#dfdedc" transform="matrix(1, 0, 0, 1, -12.956006, 2.345617)"/>
  <text transform="matrix(1, 0, 0, 1, -12.956006, 2.345617)" stroke="#dfdedc" text-anchor="start" font-family="Helvetica, Arial, sans-serif" font-size="16" id="svg_20" y="29.771371" x="2.688491" fill-opacity="null" stroke-opacity="null" stroke-width="0" fill="#000000" style="white-space: pre;">0</text>
  <text stroke="#dfdedc" text-anchor="start" font-family="Helvetica, Arial, sans-serif" font-size="16" id="svg_21" y="29.771383" x="51.631151" fill-opacity="null" stroke-opacity="null" stroke-width="0" fill="#000000" style="white-space: pre;" transform="matrix(1, 0, 0, 1, -12.956006, 2.345617)">0.5</text>
  <rect stroke="#dffcfb" id="svg_22" height="25.187492" width="55" y="35" x="64.123235" stroke-width="1.5" fill="#dffcfb" transform="matrix(1, 0, 0, 1, -12.956006, 2.345617)"/>
  <rect stroke="#97fcfc" id="svg_23" height="25.187492" width="55" y="35" x="120.705534" stroke-width="1.5" fill="#97fcfc" transform="matrix(1, 0, 0, 1, -12.956006, 2.345617)"/>
  <text stroke="#dfdedc" text-anchor="start" font-family="Helvetica, Arial, sans-serif" font-size="16" id="svg_24" y="29.465107" x="115.467827" fill-opacity="null" stroke-opacity="null" stroke-width="0" fill="#000000" style="white-space: pre;" transform="matrix(1, 0, 0, 1, -12.956006, 2.345617)">2</text>
  <text stroke="#dfdedc" text-anchor="start" font-family="Helvetica, Arial, sans-serif" font-size="16" id="svg_25" y="29.282577" x="171.940221" fill-opacity="null" stroke-opacity="null" stroke-width="0" fill="#000000" style="white-space: pre;" transform="matrix(1, 0, 0, 1, -12.956006, 2.345617)">4</text>
  <rect stroke="#90dbfb" id="svg_26" height="25.124994" width="55" y="35" x="177.239732" stroke-width="1.5" fill="#90dbfb" transform="matrix(1, 0, 0, 1, -12.956006, 2.345617)"/>
  <rect stroke="#6991fa" id="svg_27" height="25.187492" width="55" y="35" x="233.90003" stroke-width="1.5" fill="#6991fa" transform="matrix(1, 0, 0, 1, -12.956006, 2.345617)"/>
  <rect stroke="#6e49f3" id="svg_28" height="25.249991" width="55" y="35" x="346.8957" stroke-width="1.5" fill="#6e49f3" transform="matrix(1, 0, 0, 1, -12.956006, 2.345617)"/>
  <rect stroke="#8400f2" id="svg_29" height="25.205354" width="55" y="35" x="290.397867" stroke-width="1.5" fill="#8400f2" transform="matrix(1, 0, 0, 1, -12.956006, 2.345617)"/>
  <rect stroke="#ae00db" id="svg_30" height="25.268412" width="55" y="35" x="403.226892" stroke-width="1.5" fill="#ae00db" transform="matrix(1, 0, 0, 1, -12.956006, 2.345617)"/>
  <rect stroke="#e000c7" id="svg_31" height="25.377558" width="55" y="35" x="459.724726" stroke-width="1.5" fill="#e000c7" transform="matrix(1, 0, 0, 1, -12.956006, 2.345617)"/>
  <rect stroke="#b03864" id="svg_32" height="25.418842" width="55" y="35" x="572.697606" stroke-width="1.5" fill="#b03864" transform="matrix(1, 0, 0, 1, -12.956006, 2.345617)"/>
  <rect stroke="#99584e" id="svg_33" height="25.374986" width="55" y="35" x="629.260104" stroke-width="1.5" fill="#99584e" transform="matrix(1, 0, 0, 1, -12.956006, 2.345617)"/>
  <rect stroke="#ca008c" id="svg_36" height="25.37756" width="55" y="35" x="516.222559" stroke-width="1.5" fill="#ca008c" transform="matrix(1, 0, 0, 1, -12.956006, 2.345617)"/>
  <text stroke="#dfdedc" text-anchor="start" font-family="Helvetica, Arial, sans-serif" font-size="16" id="svg_37" y="29.444022" x="224.541809" fill-opacity="null" stroke-opacity="null" stroke-width="0" fill="#000000" style="white-space: pre;" transform="matrix(1, 0, 0, 1, -12.956006, 2.345617)">10</text>
  <text stroke="#dfdedc" text-anchor="start" font-family="Helvetica, Arial, sans-serif" font-size="16" id="svg_38" y="29.944001" x="280.859449" fill-opacity="null" stroke-opacity="null" stroke-width="0" fill="#000000" style="white-space: pre;" transform="matrix(1, 0, 0, 1, -12.956006, 2.345617)">20</text>
  <text stroke="#dfdedc" text-anchor="start" font-family="Helvetica, Arial, sans-serif" font-size="16" id="svg_39" y="29.804389" x="337.362943" fill-opacity="null" stroke-opacity="null" stroke-width="0" fill="#000000" style="white-space: pre;" transform="matrix(1, 0, 0, 1, -12.956006, 2.345617)">40</text>
  <text stroke="#dfdedc" text-anchor="start" font-family="Helvetica, Arial, sans-serif" font-size="16" id="svg_40" y="29.913513" x="393.751975" fill-opacity="null" stroke-opacity="null" stroke-width="0" fill="#000000" style="white-space: pre;" transform="matrix(1, 0, 0, 1, -12.956006, 2.345617)">60</text>
  <text stroke="#dfdedc" text-anchor="start" font-family="Helvetica, Arial, sans-serif" font-size="16" id="svg_41" y="29.68931" x="445.321429" fill-opacity="null" stroke-opacity="null" stroke-width="0" fill="#000000" style="white-space: pre;" transform="matrix(1, 0, 0, 1, -12.956006, 2.345617)">100</text>
  <text stroke="#dfdedc" text-anchor="start" font-family="Helvetica, Arial, sans-serif" font-size="16" id="svg_42" y="29.75677" x="502.0855" fill-opacity="null" stroke-opacity="null" stroke-width="0" fill="#000000" style="white-space: pre;" transform="matrix(1, 0, 0, 1, -12.956006, 2.345617)">200</text>
  <text stroke="#dfdedc" text-anchor="start" font-family="Helvetica, Arial, sans-serif" font-size="16" id="svg_43" y="29.584888" x="558.687061" fill-opacity="null" stroke-opacity="null" stroke-width="0" fill="#000000" style="white-space: pre;" transform="matrix(1, 0, 0, 1, -12.956006, 2.345617)">300</text>
  <text stroke="#dfdedc" text-anchor="start" font-family="Helvetica, Arial, sans-serif" font-size="16" id="svg_44" y="29.584888" x="614.838025" fill-opacity="null" stroke-opacity="null" stroke-width="0" fill="#000000" style="white-space: pre;" transform="matrix(1, 0, 0, 1, -12.956006, 2.345617)">400</text>
  <text stroke="#dfdedc" text-anchor="start" font-family="Helvetica, Arial, sans-serif" font-size="16" id="svg_45" y="29.778396" x="670.928234" fill-opacity="null" stroke-opacity="null" stroke-width="0" fill="#000000" style="white-space: pre;" transform="matrix(1, 0, 0, 1, -12.956006, 2.345617)">800</text>
  <text transform="matrix(1, 0, 0, 1, -12.956006, 2.345617)" stroke="#dfdedc" text-anchor="start" font-family="Helvetica, Arial, sans-serif" font-size="16" id="svg_47" y="76.425984" x="0.088803" fill-opacity="null" stroke-opacity="null" stroke-width="0" fill="#000000" style="white-space: pre;">0</text>
  <text transform="matrix(1, 0, 0, 1, -12.956006, 2.345617)" stroke="#dfdedc" text-anchor="start" font-family="Helvetica, Arial, sans-serif" font-size="16" id="svg_48" y="76.940623" x="58.267702" fill-opacity="null" stroke-opacity="null" stroke-width="0" fill="#000000" style="white-space: pre;">1</text>
  <text transform="matrix(1, 0, 0, 1, -12.956006, 2.345617)" stroke="#dfdedc" text-anchor="start" font-family="Helvetica, Arial, sans-serif" font-size="16" id="svg_49" y="76.426" x="115.63803" fill-opacity="null" stroke-opacity="null" stroke-width="0" fill="#000000" style="white-space: pre;">5</text>
  <text transform="matrix(1, 0, 0, 1, -12.956006, 2.345617)" stroke="#dfdedc" text-anchor="start" font-family="Helvetica, Arial, sans-serif" font-size="16" id="svg_50" y="77.715308" x="167.538108" fill-opacity="null" stroke-opacity="null" stroke-width="0" fill="#000000" style="white-space: pre;">10</text>
  <text transform="matrix(1, 0, 0, 1, -12.956006, 2.345617)" stroke="#dfdedc" text-anchor="start" font-family="Helvetica, Arial, sans-serif" font-size="16" id="svg_51" y="77.251756" x="224.31282" fill-opacity="null" stroke-opacity="null" stroke-width="0" fill="#000000" style="white-space: pre;">25</text>
  <text transform="matrix(1, 0, 0, 1, -12.956006, 2.345617)" stroke="#dfdedc" text-anchor="start" font-family="Helvetica, Arial, sans-serif" font-size="16" id="svg_52" y="77.431936" x="280.550264" fill-opacity="null" stroke-opacity="null" stroke-width="0" fill="#000000" style="white-space: pre;">50</text>
  <text transform="matrix(1, 0, 0, 1, -12.956006, 2.345617)" stroke="#dfdedc" text-anchor="start" font-family="Helvetica, Arial, sans-serif" font-size="16" id="svg_53" y="77.515285" x="333.762919" fill-opacity="null" stroke-opacity="null" stroke-width="0" fill="#000000" style="white-space: pre;">100</text>
  <text transform="matrix(1, 0, 0, 1, -12.956006, 2.345617)" stroke="#dfdedc" text-anchor="start" font-family="Helvetica, Arial, sans-serif" font-size="16" id="svg_54" y="77.484773" x="389.713685" fill-opacity="null" stroke-opacity="null" stroke-width="0" fill="#000000" style="white-space: pre;">150</text>
  <text transform="matrix(1, 0, 0, 1, -12.956006, 2.345617)" stroke="#dfdedc" text-anchor="start" font-family="Helvetica, Arial, sans-serif" font-size="16" id="svg_55" y="77.802234" x="445.233248" fill-opacity="null" stroke-opacity="null" stroke-width="0" fill="#000000" style="white-space: pre;">250</text>
  <text transform="matrix(1, 0, 0, 1, -12.956006, 2.345617)" stroke="#dfdedc" text-anchor="start" font-family="Helvetica, Arial, sans-serif" font-size="16" id="svg_56" y="77.174875" x="502.528601" fill-opacity="null" stroke-opacity="null" stroke-width="0" fill="#000000" style="white-space: pre;">500</text>
  <text transform="matrix(1, 0, 0, 1, -12.956006, 2.345617)" stroke="#dfdedc" text-anchor="start" font-family="Helvetica, Arial, sans-serif" font-size="16" id="svg_57" y="77.142628" x="558.792051" fill-opacity="null" stroke-opacity="null" stroke-width="0" fill="#000000" style="white-space: pre;">750</text>
  <text transform="matrix(1, 0, 0, 1, -12.956006, 2.345617)" stroke="#dfdedc" text-anchor="start" font-family="Helvetica, Arial, sans-serif" font-size="16" id="svg_58" y="77.115599" x="610.271589" fill-opacity="null" stroke-opacity="null" stroke-width="0" fill="#000000" style="white-space: pre;">1000</text>
  <text transform="matrix(1, 0, 0, 1, -12.956006, 2.345617)" stroke="#dfdedc" text-anchor="start" font-family="Helvetica, Arial, sans-serif" font-size="16" id="svg_59" y="77.91182" x="666.468513" fill-opacity="null" stroke-opacity="null" stroke-width="0" fill="#000000" style="white-space: pre;">2000</text>
  <text stroke="#dfdedc" text-anchor="start" font-family="Helvetica, Arial, sans-serif" font-size="16" id="svg_61" y="28.791" x="-23.033" fill-opacity="null" stroke-opacity="null" stroke-width="0" fill="#000000" style="white-space: pre; font-size: 16px;" transform="matrix(1, 0, 0, 1, -12.956006, 2.345617)">in</text>
  <text stroke="#dfdedc" text-anchor="start" font-family="Helvetica, Arial, sans-serif" font-size="16" id="svg_62" y="74.804" x="-30.295" fill-opacity="null" stroke-opacity="null" stroke-width="0" fill="#000000" style="white-space: pre; font-size: 16px;" transform="matrix(1, 0, 0, 1, -12.956006, 2.345617)">cm</text>
</svg>