<?xml version="1.0" encoding="utf-8"?>
<svg viewBox="71.642 28 332.424 295.751" xmlns="http://www.w3.org/2000/svg">
  <path stroke="#c43955" d="M 377.695 56.943 C 360.487 38.279 336.875 28 311.203 28 C 292.014 28 274.441 34.067 258.97 46.03 C 251.164 52.068 244.09 59.456 237.854 68.08 C 231.62 59.459 224.544 52.068 216.735 46.03 C 201.267 34.067 183.694 28 164.505 28 C 138.833 28 115.219 38.279 98.011 56.943 C 81.008 75.389 71.642 100.589 71.642 127.903 C 71.642 156.017 82.119 181.752 104.612 208.894 C 124.734 233.173 153.655 257.82 187.145 286.36 C 198.581 296.107 211.543 307.154 225.003 318.922 C 228.559 322.036 233.122 323.751 237.854 323.751 C 242.584 323.751 247.149 322.036 250.7 318.927 C 264.159 307.156 277.129 296.104 288.57 286.352 C 322.055 257.817 350.976 233.173 371.098 208.892 C 393.591 181.752 404.066 156.017 404.066 127.901 C 404.066 100.589 394.7 75.389 377.695 56.943 Z M 377.695 56.943" style="fill: rgb(196, 57, 85);"/>
</svg>