<?xml version="1.0" standalone="no"?>
<!DOCTYPE svg PUBLIC "-//W3C//DTD SVG 20010904//EN"
 "http://www.w3.org/TR/2001/REC-SVG-20010904/DTD/svg10.dtd">
<svg version="1.0" xmlns="http://www.w3.org/2000/svg"
 width="900.000000pt" height="129.000000pt" viewBox="0 0 900.000000 129.000000"
 preserveAspectRatio="xMidYMid meet">
<metadata>
Created by potrace 1.10, written by Peter Selinger 2001-2011
</metadata>
<g transform="translate(0.000000,129.000000) scale(0.100000,-0.100000)"
fill="#103352" stroke="none">
<path d="M320 1111 c-88 -24 -121 -42 -167 -95 -59 -67 -76 -143 -52 -231 12
-45 70 -122 103 -136 11 -5 28 -13 36 -18 14 -8 29 -15 123 -55 21 -9 42 -16
47 -16 16 0 142 -62 173 -84 49 -36 70 -82 70 -148 -1 -51 -5 -65 -30 -96 -17
-21 -43 -43 -59 -51 -16 -8 -38 -19 -49 -24 -11 -6 -52 -12 -91 -15 -111 -7
-216 35 -296 120 -35 36 -75 38 -84 3 -4 -15 -1 -32 7 -41 22 -26 141 -108
179 -122 102 -39 258 -37 346 5 93 44 164 142 164 227 0 83 -78 202 -156 239
-22 10 -52 25 -67 33 -16 8 -36 14 -46 14 -9 0 -26 7 -37 15 -10 8 -25 15 -32
15 -15 0 -76 25 -102 41 -8 5 -22 12 -30 16 -66 29 -100 82 -100 157 0 50 4
64 31 97 48 61 105 82 219 82 109 0 152 -17 217 -84 44 -45 64 -49 82 -15 17
30 5 54 -46 93 -61 45 -83 55 -168 74 -96 22 -102 22 -185 0z"/>
<path d="M2315 1111 c-38 -10 -83 -23 -98 -29 -16 -7 -31 -12 -34 -12 -3 0
-24 -14 -47 -31 -119 -91 -185 -205 -206 -356 -37 -272 89 -503 320 -587 73
-26 278 -28 325 -2 17 9 36 16 43 16 35 0 166 110 210 175 12 19 39 79 58 130
27 72 27 302 0 366 -35 84 -51 114 -81 154 -73 96 -156 146 -294 177 -98 21
-103 21 -196 -1z m249 -87 c16 -8 33 -14 38 -14 9 0 55 -31 96 -65 27 -23 69
-84 93 -135 51 -108 61 -227 31 -341 -27 -103 -67 -168 -141 -233 -96 -85
-253 -118 -380 -79 -101 31 -204 113 -247 198 -57 111 -72 277 -35 393 53 165
164 268 316 292 66 11 192 2 229 -16z"/>
<path d="M7495 1111 c-38 -10 -83 -23 -98 -29 -16 -7 -30 -12 -33 -12 -15 0
-118 -86 -156 -130 -79 -90 -128 -221 -128 -340 0 -73 25 -180 56 -245 33 -67
148 -191 204 -219 102 -51 142 -60 260 -60 124 0 159 9 278 67 54 27 62 35 62
59 0 37 -39 48 -78 22 -84 -57 -168 -84 -262 -84 -68 0 -150 18 -190 41 -8 5
-26 14 -38 19 -37 16 -135 121 -158 170 -12 25 -28 58 -35 74 -10 20 -14 70
-14 155 0 121 1 129 32 191 17 36 50 86 73 112 38 44 121 108 139 108 4 0 23
8 42 17 47 24 248 25 299 1 19 -9 42 -19 50 -22 23 -10 56 -30 74 -45 24 -20
66 -6 66 23 0 30 -22 49 -95 82 -61 27 -210 64 -255 62 -14 0 -56 -8 -95 -17z"/>
<path d="M945 1098 c-3 -7 -4 -238 -3 -513 l3 -500 30 0 30 0 2 429 c1 247 5
432 10 437 6 6 25 -15 48 -53 22 -35 43 -67 48 -73 4 -5 91 -122 193 -260 101
-137 207 -279 236 -315 28 -36 66 -89 85 -117 36 -56 64 -68 82 -34 7 12 11
197 12 506 1 400 -1 489 -12 496 -19 12 -33 11 -50 -3 -13 -11 -14 -68 -9
-438 3 -234 5 -427 4 -428 -6 -10 -36 18 -66 63 -45 65 -145 205 -164 228 -8
9 -30 41 -51 69 -20 29 -40 57 -45 63 -43 51 -318 427 -318 434 0 21 -58 28
-65 9z"/>
<path d="M3017 1103 c-11 -11 -8 -43 8 -76 16 -36 44 -111 51 -142 3 -11 10
-29 15 -40 4 -11 18 -49 29 -85 12 -36 25 -74 30 -85 15 -32 41 -108 47 -135
3 -14 9 -29 13 -35 4 -5 18 -44 31 -85 12 -41 29 -84 36 -95 7 -11 13 -28 13
-37 0 -10 5 -26 10 -36 6 -9 21 -51 33 -92 20 -65 27 -75 48 -78 28 -3 24 -10
89 153 17 44 38 94 45 110 7 17 23 55 34 85 12 30 26 64 30 75 8 18 15 37 55
143 8 20 17 49 20 65 4 15 12 27 19 27 18 0 37 -21 37 -41 0 -9 14 -52 31 -95
17 -44 37 -97 46 -119 8 -22 19 -49 24 -60 4 -11 18 -45 30 -75 25 -64 47
-114 66 -152 7 -14 13 -34 13 -43 0 -27 33 -75 51 -75 23 0 33 16 54 80 9 30
23 69 30 85 7 17 16 39 18 50 7 26 35 105 47 130 5 11 18 49 30 85 11 36 25
74 29 85 5 11 12 29 15 40 5 22 32 99 45 130 13 31 32 86 43 125 5 19 14 39
19 44 5 6 9 18 9 28 0 9 9 35 21 57 11 22 19 50 17 63 -2 19 -9 23 -38 23
l-34 0 -36 -107 c-19 -59 -39 -110 -43 -114 -4 -4 -7 -16 -7 -27 0 -10 -6 -33
-14 -50 -8 -18 -24 -61 -35 -97 -12 -36 -25 -74 -30 -85 -10 -26 -24 -66 -68
-200 -55 -170 -65 -195 -77 -195 -6 0 -20 28 -30 63 -11 34 -25 76 -32 92 -6
17 -20 50 -29 75 -10 25 -21 54 -26 65 -4 11 -24 61 -45 110 -20 50 -42 104
-49 120 -8 17 -22 53 -32 80 -26 68 -54 73 -82 14 -12 -24 -21 -47 -21 -52 0
-8 -7 -27 -45 -112 -14 -32 -60 -146 -95 -235 -11 -30 -25 -64 -29 -75 -5 -11
-17 -47 -28 -79 -32 -95 -32 -95 -97 99 -15 44 -31 94 -36 110 -9 33 -28 89
-41 120 -13 31 -40 108 -45 130 -3 11 -10 29 -15 40 -12 28 -39 104 -49 140
-10 37 -28 89 -48 138 -12 30 -20 37 -42 37 -15 0 -30 -3 -33 -7z"/>
<path d="M5423 1095 c-11 -8 -13 -98 -11 -510 l3 -500 24 -3 c13 -2 28 1 34 7
7 7 10 85 8 226 l-2 215 181 0 c221 0 258 9 334 85 109 108 116 284 15 399
-70 80 -91 85 -348 88 -138 2 -229 -1 -238 -7z m464 -79 c36 -17 60 -38 80
-67 25 -39 28 -51 28 -128 -1 -78 -3 -90 -29 -128 -17 -26 -46 -51 -75 -65
-42 -21 -62 -23 -228 -26 l-183 -3 0 214 c0 117 3 217 7 220 3 4 83 7 177 7
160 0 174 -2 223 -24z"/>
<path d="M6517 1092 c-10 -10 -17 -27 -17 -36 0 -10 -6 -30 -13 -44 -20 -38
-40 -84 -81 -187 -36 -88 -45 -109 -71 -170 -7 -16 -20 -50 -30 -75 -9 -25
-23 -58 -30 -75 -7 -16 -27 -66 -45 -110 -40 -101 -50 -124 -89 -207 -27 -58
-29 -71 -19 -88 21 -33 78 -20 78 18 0 8 6 28 14 45 7 18 20 50 29 72 8 22 22
60 32 85 9 25 20 52 25 60 6 13 46 15 249 18 223 2 242 1 247 -15 7 -23 33
-90 49 -128 7 -16 21 -50 30 -75 30 -80 41 -95 72 -95 40 0 41 35 5 116 -16
35 -50 116 -77 179 -26 63 -53 129 -60 145 -7 17 -28 66 -45 110 -18 44 -38
94 -45 110 -8 17 -34 82 -60 145 -26 63 -53 127 -61 142 -8 14 -14 35 -14 46
0 34 -47 43 -73 14z m57 -169 c22 -61 45 -120 62 -158 38 -88 44 -104 44 -109
0 -3 18 -44 40 -92 23 -48 39 -88 37 -91 -4 -3 -321 -6 -404 -3 -18 0 -16 17
6 64 23 49 38 86 81 191 17 44 38 95 46 113 8 18 14 37 14 42 0 20 41 101 48
96 5 -3 17 -27 26 -53z"/>
<path d="M8132 1102 c-10 -7 -12 -116 -10 -513 l3 -504 24 -3 c13 -2 28 1 33
6 7 7 10 75 9 174 l-2 164 63 54 c35 30 82 73 105 97 24 24 46 43 50 43 5 0
33 -35 63 -76 30 -42 64 -85 75 -97 11 -11 31 -35 45 -53 151 -191 264 -324
275 -324 17 0 45 27 45 45 0 7 -6 20 -12 27 -20 20 -110 128 -138 164 -62 79
-228 281 -257 314 -50 53 -54 44 82 165 44 39 106 95 140 127 33 31 82 76 109
100 52 48 58 75 18 89 -21 8 -34 -1 -106 -69 -45 -42 -140 -131 -211 -197 -70
-66 -140 -131 -154 -145 -112 -109 -184 -171 -190 -164 -4 5 -4 128 -1 274 3
146 2 275 -2 288 -8 22 -32 28 -56 14z"/>
<path d="M4757 954 c-4 -4 -4 -37 -1 -74 4 -39 3 -70 -3 -73 -5 -3 -27 16 -48
44 -41 51 -61 60 -72 33 -4 -11 14 -35 60 -79 l67 -62 0 -71 c0 -72 -12 -96
-33 -70 -7 8 -28 25 -48 37 -40 23 -69 73 -69 115 0 30 -35 106 -49 106 -19 0
-20 -47 -1 -83 40 -77 23 -89 -53 -37 -56 39 -91 44 -85 12 3 -17 94 -70 121
-71 27 -1 15 -25 -14 -29 -13 -2 -33 -7 -44 -12 -11 -5 -29 -10 -40 -12 -12
-2 -20 -11 -20 -23 0 -17 6 -20 34 -17 19 1 40 7 46 12 23 19 102 30 134 19
17 -6 31 -15 31 -20 0 -5 8 -9 18 -9 46 0 56 -48 12 -56 -16 -4 -30 -10 -30
-14 0 -5 -14 -13 -30 -19 -35 -12 -107 -1 -156 24 -35 17 -67 11 -62 -13 3
-16 33 -28 97 -40 33 -7 56 -32 29 -32 -21 0 -120 -53 -126 -68 -3 -8 1 -18 9
-23 19 -12 25 -11 41 4 30 27 78 57 93 57 19 0 20 -29 1 -56 -23 -32 -25 -94
-2 -94 15 0 46 73 46 109 0 32 30 92 49 99 17 6 31 16 62 45 30 27 39 12 39
-65 l0 -71 -67 -62 c-46 -44 -64 -68 -60 -79 11 -27 31 -18 72 33 21 28 43 47
48 44 5 -3 7 -37 5 -77 -3 -65 -1 -71 17 -71 19 0 20 6 17 78 -3 65 -1 77 12
77 9 0 16 -3 16 -7 0 -13 76 -93 87 -93 6 0 16 6 22 14 9 10 -5 28 -64 84
l-75 71 0 65 c0 66 13 91 34 65 13 -16 41 -35 73 -49 26 -11 43 -40 43 -71 0
-22 12 -67 32 -118 7 -19 11 -21 23 -11 21 17 19 48 -5 93 -32 60 -11 69 55
23 16 -12 36 -27 43 -34 17 -15 27 -15 41 1 14 17 -15 44 -82 76 -48 23 -54
41 -14 41 28 0 94 23 108 37 23 23 -58 37 -85 14 -6 -5 -34 -15 -60 -21 -41
-9 -54 -8 -90 8 -22 11 -49 22 -58 25 -33 12 -14 57 24 57 10 0 18 4 18 9 0 5
14 14 31 20 35 12 93 2 147 -25 28 -13 38 -14 60 -4 26 11 26 12 7 26 -10 8
-26 14 -35 14 -9 0 -20 4 -25 9 -6 5 -23 11 -39 13 -29 3 -50 28 -24 28 21 0
93 36 107 54 14 17 8 46 -8 46 -5 0 -16 -6 -23 -12 -7 -7 -32 -26 -56 -42 -55
-38 -72 -25 -43 30 25 46 27 82 5 91 -20 7 -34 -13 -34 -49 0 -15 -4 -30 -10
-33 -5 -3 -10 -21 -10 -38 0 -36 -24 -77 -45 -77 -7 0 -15 -3 -17 -7 -7 -16
-69 -54 -78 -48 -6 3 -10 35 -10 70 l0 64 75 72 c41 40 75 76 75 80 0 4 -9 11
-21 14 -16 5 -29 -3 -60 -37 -21 -23 -39 -46 -39 -50 0 -5 -7 -8 -16 -8 -13 0
-15 12 -12 77 2 64 0 78 -12 81 -9 1 -19 0 -23 -4z"/>
</g>
</svg>
